<?xml version="1.0" encoding="utf-8" ?><svg xmlns="http://www.w3.org/2000/svg" xmlns:xlink="http://www.w3.org/1999/xlink" width="1536" height="768" viewBox="0 0 1536 768"><path fill="white" d="M0 0L1536 0L1536 768L0 768L0 0Z"/><path fill="#0A1F44" d="M104.332 191.339L133.769 191.317L133.5 585.4L156.205 585.328L156.183 191.983L185.428 191.927L185.395 585.122L207.851 585.079L207.822 191.998L236.792 191.93L236.888 585.113L260.38 585.045L260.458 191.904L288.736 191.851L288.761 585.129L312.709 585.107L312.76 191.952L341.462 191.935L341.265 585.421L364.344 585.266L364.088 191.365L394.075 191.388L394.371 585.167L415.548 585.124L415.557 191.777C425.211 191.882 435.061 191.772 444.732 191.765L444.707 584.981L467.567 584.984L467.754 192.011L496.578 191.926L496.489 585.491C504.396 585.564 512.538 585.379 520.463 585.298L520.43 192.259L549.757 192.077L549.578 585.552L571.449 585.251L571.296 191.509L600.188 191.645L600.531 585.158L623.381 585.035L623.706 192.001L652.505 191.876L652.527 585.194L675.219 585.036L675.045 191.953L703.526 191.929L703.559 585.063L725.913 585.055L725.827 191.889L754.528 191.817L754.482 585.155L777.989 585.116C778.575 535.2 777.98 484.019 778 434.018L778.14 191.977L807.57 191.951L807.75 585.66L828.652 585.654C844.961 585.722 865.828 586.139 881.882 585.266L882.041 191.989L911.081 191.945L911.269 585.169L934.876 585.209L934.818 191.979L962.948 191.898L962.928 585.449L986.479 585.429L986.291 191.989L1015.19 191.964C1016.19 322.799 1013.64 454.602 1015.25 585.297L1038.02 585.243L1037.9 192.009L1067.02 191.914L1067.21 585.498L1090.07 585.55L1089.94 191.977L1118.92 191.948L1118.88 446.213C1118.85 492.052 1118.18 539.544 1118.89 585.252C1138.32 585.839 1168.26 586.32 1187.63 585.539C1189.36 585.641 1190.87 585.483 1192.59 585.358C1194.46 582.589 1193.44 540.899 1193.44 535.127L1193.44 433.202L1193.56 192.108L1223.25 192.125L1223.26 585.29L1245.84 585.158C1246.4 541.569 1245.87 496.543 1245.87 452.859L1245.78 191.449L1275.01 191.373L1275.17 585.128L1297.51 585.142L1297.69 192.022L1326.77 191.985L1326.86 584.961L1349.94 585.065L1350 192.023L1379.19 191.929L1379.31 585.538C1387.23 585.543 1395.14 585.508 1403.06 585.431L1402.61 191.936L1431.73 191.855L1431.86 585.247L1453.42 585.197L1453.41 191.956L1481.82 191.949L1482.02 585.367C1487.8 585.362 1501.97 583.533 1505.91 587.42L1505.79 589.472C1505.6 589.595 1505.41 589.726 1505.21 589.841C1501.48 591.995 1278.68 590.631 1258.07 590.645L317.858 590.665L102.239 590.55C91.0554 590.55 36.2432 592.168 28.4081 590.029C27.3657 587.7 27.4962 588.723 27.9759 586.154C30.0887 584.667 47.7098 585.309 51.6327 585.321L51.5454 192.017L80.2111 191.993C79.1782 231.881 80.148 275.308 80.1001 315.465L80.1928 585.402L104.237 585.292L104.332 191.339Z"/><path fill="#F5C842" d="M1140.24 191.963L1170.61 191.984L1170.43 585.237C1175.42 585.303 1182.84 585.167 1187.63 585.539C1168.26 586.32 1138.32 585.839 1118.89 585.252C1125.94 585.035 1132.99 584.965 1140.03 585.043L1140.24 191.963Z"/><path fill="#F5C842" d="M828.759 191.898L858.726 191.966L858.664 585.177C866.403 585.069 874.144 585.098 881.882 585.266C865.828 586.139 844.961 585.722 828.652 585.654C829.405 576.564 828.737 553.654 828.727 543.935L828.638 457.131L828.759 191.898Z"/></svg>